<svg xmlns="http://www.w3.org/2000/svg" version="1.1" xmlns:xlink="http://www.w3.org/1999/xlink" xmlns:svgjs="http://svgjs.dev/svgjs" viewBox="0 0 7.812264011069521 6.929040423396961"><g transform="matrix(1,0,0,1,0.6128969203074881,4.045374016228678)"><rect width="7.812264011069521" height="7.812264011069521" x="-0.6128969203074881" y="-4.486985810064958" fill="#fcf7ee"></rect><g><path d=" M 0.10693359375 0.010986328125 L 0.570556640625 0.010986328125 L 0.570556640625 0.160400390625 L 0.296630859375 0.160400390625 L 0.296630859375 0.53466796875 L 0.50830078125 0.53466796875 L 0.50830078125 0.68408203125 L 0.296630859375 0.68408203125 L 0.296630859375 1.112548828125 L 0.577880859375 1.112548828125 L 0.577880859375 1.261962890625 L 0.10693359375 1.261962890625 L 0.10693359375 0.010986328125 M 0.71484375 0.010986328125 L 0.904541015625 0.010986328125 Q 0.9404296875 0.010986328125 0.9832763671875 0.0142822265625 Q 1.026123046875 0.017578125 1.0689697265625 0.0296630859375 Q 1.11181640625 0.041748046875 1.1517333984375 0.066650390625 Q 1.191650390625 0.091552734375 1.222412109375 0.1343994140625 Q 1.253173828125 0.17724609375 1.2718505859375 0.24169921875 Q 1.29052734375 0.30615234375 1.29052734375 0.3984375 L 1.29052734375 0.4423828125 Q 1.29052734375 0.542724609375 1.2733154296875 0.6141357421875 Q 1.256103515625 0.685546875 1.2275390625 0.7342529296875 Q 1.198974609375 0.782958984375 1.1612548828125 0.812255859375 Q 1.12353515625 0.841552734375 1.0828857421875 0.8565673828125 Q 1.042236328125 0.87158203125 1.0008544921875 0.8763427734375 Q 0.95947265625 0.881103515625 0.9228515625 0.881103515625 L 0.904541015625 0.881103515625 L 0.904541015625 1.261962890625 L 0.71484375 1.261962890625 L 0.71484375 0.010986328125 M 0.9140625 0.741943359375 Q 0.96533203125 0.741943359375 1.00048828125 0.7269287109375 Q 1.03564453125 0.7119140625 1.0565185546875 0.6800537109375 Q 1.077392578125 0.648193359375 1.0865478515625 0.5980224609375 Q 1.095703125 0.5478515625 1.095703125 0.4775390625 L 1.095703125 0.36474609375 Q 1.095703125 0.30908203125 1.087646484375 0.2684326171875 Q 1.07958984375 0.227783203125 1.0587158203125 0.201416015625 Q 1.037841796875 0.175048828125 1.002685546875 0.1622314453125 Q 0.967529296875 0.1494140625 0.9140625 0.1494140625 L 0.904541015625 0.1494140625 L 0.904541015625 0.741943359375 L 0.9140625 0.741943359375 M 1.43408203125 0.010986328125 L 1.623779296875 0.010986328125 L 1.623779296875 1.261962890625 L 1.43408203125 1.261962890625 L 1.43408203125 0.010986328125 M 2.107177734375 1.27294921875 Q 2.077880859375 1.27294921875 2.0438232421875 1.2681884765625 Q 2.009765625 1.263427734375 1.9757080078125 1.248046875 Q 1.941650390625 1.232666015625 1.9105224609375 1.2044677734375 Q 1.87939453125 1.17626953125 1.8555908203125 1.130126953125 Q 1.831787109375 1.083984375 1.8175048828125 1.0162353515625 Q 1.80322265625 0.948486328125 1.80322265625 0.854736328125 L 1.80322265625 0.41162109375 Q 1.80322265625 0.317138671875 1.81787109375 0.2501220703125 Q 1.83251953125 0.18310546875 1.856689453125 0.1373291015625 Q 1.880859375 0.091552734375 1.912353515625 0.064453125 Q 1.94384765625 0.037353515625 1.9775390625 0.0230712890625 Q 2.01123046875 0.0087890625 2.0445556640625 0.00439453125 Q 2.077880859375 0 2.1064453125 0 Q 2.18115234375 0 2.2313232421875 0.0208740234375 Q 2.281494140625 0.041748046875 2.3118896484375 0.0780029296875 Q 2.34228515625 0.1142578125 2.3551025390625 0.16259765625 Q 2.367919921875 0.2109375 2.367919921875 0.26513671875 Q 2.367919921875 0.305419921875 2.3638916015625 0.3394775390625 Q 2.35986328125 0.37353515625 2.351806640625 0.41455078125 L 2.197998046875 0.41455078125 L 2.197998046875 0.350830078125 Q 2.197998046875 0.24755859375 2.17529296875 0.1962890625 Q 2.152587890625 0.14501953125 2.108642578125 0.14501953125 Q 2.082275390625 0.14501953125 2.0625 0.1552734375 Q 2.042724609375 0.16552734375 2.029541015625 0.1900634765625 Q 2.016357421875 0.214599609375 2.0093994140625 0.2548828125 Q 2.00244140625 0.295166015625 2.00244140625 0.355224609375 L 2.00244140625 0.926513671875 Q 2.00244140625 0.985107421875 2.0079345703125 1.02392578125 Q 2.013427734375 1.062744140625 2.02587890625 1.086181640625 Q 2.038330078125 1.109619140625 2.0584716796875 1.1195068359375 Q 2.07861328125 1.12939453125 2.107177734375 1.12939453125 Q 2.12548828125 1.12939453125 2.142333984375 1.1209716796875 Q 2.1591796875 1.112548828125 2.1719970703125 1.0946044921875 Q 2.184814453125 1.07666015625 2.1925048828125 1.0491943359375 Q 2.2001953125 1.021728515625 2.2001953125 0.984375 L 2.2001953125 0.862060546875 L 2.373779296875 0.862060546875 L 2.373779296875 0.977783203125 Q 2.373779296875 1.128662109375 2.304931640625 1.200439453125 Q 2.236083984375 1.272216796875 2.107177734375 1.27294921875 M 2.660888671875 0.010986328125 L 2.879150390625 0.010986328125 L 3.110595703125 1.261962890625 L 2.918701171875 1.261962890625 L 2.88427734375 1.037841796875 L 2.65576171875 1.037841796875 L 2.622802734375 1.261962890625 L 2.43017578125 1.261962890625 L 2.660888671875 0.010986328125 M 2.8623046875 0.89501953125 L 2.7744140625 0.271728515625 L 2.766357421875 0.271728515625 L 2.677734375 0.89501953125 L 2.8623046875 0.89501953125 M 3.2314453125 0.010986328125 L 3.421142578125 0.010986328125 Q 3.45703125 0.010986328125 3.4998779296875 0.0142822265625 Q 3.542724609375 0.017578125 3.5855712890625 0.0296630859375 Q 3.62841796875 0.041748046875 3.6683349609375 0.066650390625 Q 3.708251953125 0.091552734375 3.739013671875 0.1343994140625 Q 3.769775390625 0.17724609375 3.7884521484375 0.24169921875 Q 3.80712890625 0.30615234375 3.80712890625 0.3984375 L 3.80712890625 0.4423828125 Q 3.80712890625 0.542724609375 3.7899169921875 0.6141357421875 Q 3.772705078125 0.685546875 3.744140625 0.7342529296875 Q 3.715576171875 0.782958984375 3.6778564453125 0.812255859375 Q 3.64013671875 0.841552734375 3.5994873046875 0.8565673828125 Q 3.558837890625 0.87158203125 3.5174560546875 0.8763427734375 Q 3.47607421875 0.881103515625 3.439453125 0.881103515625 L 3.421142578125 0.881103515625 L 3.421142578125 1.261962890625 L 3.2314453125 1.261962890625 L 3.2314453125 0.010986328125 M 3.4306640625 0.741943359375 Q 3.48193359375 0.741943359375 3.51708984375 0.7269287109375 Q 3.55224609375 0.7119140625 3.5731201171875 0.6800537109375 Q 3.593994140625 0.648193359375 3.6031494140625 0.5980224609375 Q 3.6123046875 0.5478515625 3.6123046875 0.4775390625 L 3.6123046875 0.36474609375 Q 3.6123046875 0.30908203125 3.604248046875 0.2684326171875 Q 3.59619140625 0.227783203125 3.5753173828125 0.201416015625 Q 3.554443359375 0.175048828125 3.519287109375 0.1622314453125 Q 3.484130859375 0.1494140625 3.4306640625 0.1494140625 L 3.421142578125 0.1494140625 L 3.421142578125 0.741943359375 L 3.4306640625 0.741943359375 M 3.95068359375 0.010986328125 L 4.140380859375 0.010986328125 Q 4.17626953125 0.010986328125 4.2191162109375 0.0142822265625 Q 4.261962890625 0.017578125 4.3048095703125 0.0296630859375 Q 4.34765625 0.041748046875 4.3875732421875 0.066650390625 Q 4.427490234375 0.091552734375 4.458251953125 0.1343994140625 Q 4.489013671875 0.17724609375 4.5076904296875 0.24169921875 Q 4.5263671875 0.30615234375 4.5263671875 0.3984375 L 4.5263671875 0.4423828125 Q 4.5263671875 0.542724609375 4.5091552734375 0.6141357421875 Q 4.491943359375 0.685546875 4.46337890625 0.7342529296875 Q 4.434814453125 0.782958984375 4.3970947265625 0.812255859375 Q 4.359375 0.841552734375 4.3187255859375 0.8565673828125 Q 4.278076171875 0.87158203125 4.2366943359375 0.8763427734375 Q 4.1953125 0.881103515625 4.15869140625 0.881103515625 L 4.140380859375 0.881103515625 L 4.140380859375 1.261962890625 L 3.95068359375 1.261962890625 L 3.95068359375 0.010986328125 M 4.14990234375 0.741943359375 Q 4.201171875 0.741943359375 4.236328125 0.7269287109375 Q 4.271484375 0.7119140625 4.2923583984375 0.6800537109375 Q 4.313232421875 0.648193359375 4.3223876953125 0.5980224609375 Q 4.33154296875 0.5478515625 4.33154296875 0.4775390625 L 4.33154296875 0.36474609375 Q 4.33154296875 0.30908203125 4.323486328125 0.2684326171875 Q 4.3154296875 0.227783203125 4.2945556640625 0.201416015625 Q 4.273681640625 0.175048828125 4.238525390625 0.1622314453125 Q 4.203369140625 0.1494140625 4.14990234375 0.1494140625 L 4.140380859375 0.1494140625 L 4.140380859375 0.741943359375 L 4.14990234375 0.741943359375 M 4.62158203125 1.008544921875 Q 4.62158203125 0.96826171875 4.6263427734375 0.9342041015625 Q 4.631103515625 0.900146484375 4.640625 0.860595703125 L 4.787841796875 0.860595703125 L 4.787841796875 0.92138671875 Q 4.787841796875 0.971923828125 4.7940673828125 1.0107421875 Q 4.80029296875 1.049560546875 4.8145751953125 1.0762939453125 Q 4.828857421875 1.10302734375 4.8526611328125 1.1165771484375 Q 4.87646484375 1.130126953125 4.910888671875 1.130126953125 Q 4.965087890625 1.130126953125 4.99365234375 1.1004638671875 Q 5.022216796875 1.07080078125 5.022216796875 1.013671875 Q 5.022216796875 0.984375 5.0181884765625 0.9598388671875 Q 5.01416015625 0.935302734375 5.0042724609375 0.9111328125 Q 4.994384765625 0.886962890625 4.9775390625 0.8602294921875 Q 4.960693359375 0.83349609375 4.934326171875 0.800537109375 L 4.736572265625 0.5654296875 Q 4.683837890625 0.498046875 4.6552734375 0.4295654296875 Q 4.626708984375 0.361083984375 4.626708984375 0.283447265625 Q 4.626708984375 0.22119140625 4.6461181640625 0.169189453125 Q 4.66552734375 0.1171875 4.7021484375 0.0794677734375 Q 4.73876953125 0.041748046875 4.7926025390625 0.0208740234375 Q 4.846435546875 0 4.91455078125 0 Q 4.997314453125 0 5.0526123046875 0.0234375 Q 5.10791015625 0.046875 5.140869140625 0.0849609375 Q 5.173828125 0.123046875 5.1873779296875 0.1702880859375 Q 5.200927734375 0.217529296875 5.200927734375 0.26513671875 Q 5.200927734375 0.305419921875 5.1947021484375 0.3394775390625 Q 5.1884765625 0.37353515625 5.180419921875 0.41455078125 L 5.033935546875 0.41455078125 L 5.033935546875 0.355224609375 Q 5.033935546875 0.255615234375 5.00537109375 0.2025146484375 Q 4.976806640625 0.1494140625 4.912353515625 0.1494140625 Q 4.85888671875 0.1494140625 4.83251953125 0.1790771484375 Q 4.80615234375 0.208740234375 4.80615234375 0.258544921875 Q 4.80615234375 0.284912109375 4.8101806640625 0.30615234375 Q 4.814208984375 0.327392578125 4.8218994140625 0.3453369140625 Q 4.82958984375 0.36328125 4.840576171875 0.380126953125 Q 4.8515625 0.39697265625 4.865478515625 0.415283203125 L 5.0859375 0.681884765625 Q 5.14599609375 0.76025390625 5.17822265625 0.8323974609375 Q 5.21044921875 0.904541015625 5.21044921875 0.985107421875 Q 5.21044921875 1.0517578125 5.1895751953125 1.105224609375 Q 5.168701171875 1.15869140625 5.1298828125 1.196044921875 Q 5.091064453125 1.2333984375 5.0361328125 1.2535400390625 Q 4.981201171875 1.273681640625 4.912353515625 1.273681640625 Q 4.827392578125 1.273681640625 4.7713623046875 1.2509765625 Q 4.71533203125 1.228271484375 4.6820068359375 1.19091796875 Q 4.648681640625 1.153564453125 4.6351318359375 1.10595703125 Q 4.62158203125 1.058349609375 4.62158203125 1.008544921875" fill="#212121" fill-rule="nonzero"></path></g><g><path d=" M 0.06924715909090909 1.7197884854403407 Q 0.08955522017045454 1.7197884854403407 0.08955522017045454 1.7487524414062496 Q 0.08955522017045454 1.788036887428977 0.08905584161931818 1.8314828213778405 Q 0.08855646306818181 1.8749287553267042 0.0882235440340909 1.9102181729403405 Q 0.087890625 1.945507590553977 0.08755770596590909 1.992449174360795 Q 0.08689186789772727 2.0899944513494315 0.08622602982954544 2.2318179598721586 Q 0.15247691761363635 2.2331496360085223 0.2134011008522727 2.227157093394886 Q 0.22538618607954544 2.2258254172585223 0.23204456676136362 2.2321508789062494 Q 0.2387029474431818 2.238476340553977 0.2387029474431818 2.245467640269886 Q 0.2387029474431818 2.252458939985795 0.23271040482954544 2.257619185014204 Q 0.22671786221590906 2.262779430042613 0.21506569602272727 2.2621135919744315 Q 0.17711292613636362 2.259117320667613 0.1333340731534091 2.2607819158380678 Q 0.08955522017045454 2.2624465110085223 0.08056640625 2.263778187144886 Q 0.07157759232954546 2.2651098632812494 0.06741610440340909 2.2642775656960223 Q 0.06325461647727272 2.263445268110795 0.05992542613636363 2.2607819158380678 Q 0.05260120738636363 2.2551222922585223 0.05326704545454545 2.2441359641335223 Q 0.05726207386363636 2.1662329101562494 0.05726207386363636 2.0405559747869315 Q 0.05726207386363636 1.9148790394176132 0.057095614346590905 1.885082785866477 Q 0.05692915482954545 1.8552865323153405 0.05626331676136363 1.8303176047585223 Q 0.05493164062499999 1.780712668678977 0.05060369318181818 1.7410953036221586 Q 0.04960493607954545 1.7304418945312496 0.055597478693181816 1.725115189985795 Q 0.06159002130681818 1.7197884854403407 0.06924715909090909 1.7197884854403407 M 0.318603515625 1.8416368519176132 Q 0.31843705610795453 1.853954856178977 0.31843705610795453 1.8611126154119315 Q 0.31843705610795453 1.868270374644886 0.3142755681818181 1.8724318625710223 Q 0.31011408025568177 1.8765933504971586 0.30478737571022724 1.877092729048295 Q 0.2994606711647727 1.8775921075994315 0.29546564275568177 1.8727647816051132 Q 0.2914706143465909 1.867937455610795 0.2914706143465909 1.8486281516335223 Q 0.2914706143465909 1.8293188476562496 0.2911376953125 1.8033511629971586 Q 0.29080477627840906 1.7773834783380678 0.29013893821022724 1.754744984019886 Q 0.28914018110795453 1.703808371803977 0.2878085049715909 1.685164905894886 Q 0.28547807173295453 1.651873002485795 0.30545321377840906 1.651873002485795 Q 0.3141091086647727 1.651873002485795 0.31943581321022724 1.659197221235795 Q 0.32476251775568177 1.666521439985795 0.3235973011363636 1.678173606178977 Q 0.3224320845170454 1.6898257723721586 0.3217662464488636 1.7051400479403407 Q 0.32110040838068177 1.7204543235085223 0.3206010298295454 1.7387648703835223 Q 0.32010165127840906 1.7570754172585223 0.3196022727272727 1.776384721235795 Q 0.31910289417613635 1.7956940252130678 0.3189364346590909 1.8125064364346586 Q 0.3187699751420454 1.8293188476562496 0.318603515625 1.8416368519176132 M 0.4532692649147727 1.8238256835937496 Q 0.45310280539772724 1.8419697709517042 0.45310280539772724 1.9698106800426132 Q 0.45310280539772724 2.0976515891335223 0.4570978338068181 2.2388092595880678 Q 0.45743075284090906 2.249462668678977 0.45093883167613635 2.2551222922585223 Q 0.4444469105113636 2.2607819158380678 0.43728915127840906 2.2607819158380678 Q 0.43013139204545453 2.2607819158380678 0.42463822798295453 2.255788130326704 Q 0.41914506392045453 2.2507943448153407 0.41981090198863635 2.233482555042613 Q 0.4204767400568182 2.216170765269886 0.421142578125 2.1855422141335223 Q 0.42180841619318177 2.1549136629971586 0.4224742542613636 2.120290083451704 Q 0.42380593039772724 2.051708762428977 0.42380593039772724 1.9922827148437496 Q 0.42380593039772724 1.9328566672585223 0.42363947088068177 1.899731223366477 Q 0.42347301136363635 1.8666057794744315 0.42280717329545453 1.838640580610795 Q 0.42180841619318177 1.776717640269886 0.41914506392045453 1.739763627485795 Q 0.41814630681818177 1.729110218394886 0.4229736328125 1.723949973366477 Q 0.4278009588068182 1.7187897283380678 0.43545809659090906 1.7187897283380678 Q 0.443115234375 1.7187897283380678 0.4497736150568181 1.723949973366477 Q 0.45643199573863635 1.729110218394886 0.4559326171875 1.7414282226562496 Q 0.4554332386363636 1.7537462269176132 0.45493386008522724 1.765731312144886 Q 0.4544344815340909 1.7777163973721586 0.45393510298295453 1.791698996803977 Q 0.4534357244318181 1.805681596235795 0.4532692649147727 1.8238256835937496 M 0.8261385830965908 1.7390977894176132 Q 0.8241410688920454 1.904891468394886 0.8241410688920454 1.9736392489346586 Q 0.8241410688920454 2.0423870294744315 0.8243075284090908 2.074513716264204 Q 0.8244739879261364 2.106640403053977 0.8248069069602273 2.135604359019886 Q 0.8254727450284091 2.196861461292613 0.8263050426136364 2.2193334960937494 Q 0.8271373401988635 2.241805530894886 0.8251398259943181 2.2461334783380678 Q 0.8231423117897727 2.2504614257812494 0.8198131214488635 2.2534576970880678 Q 0.8061634410511364 2.2657757013494315 0.7908491654829546 2.255788130326704 Q 0.7848566228693181 2.251793101917613 0.7821932705965908 2.2438030450994315 Q 0.7528963955965908 2.157909934303977 0.7116144353693181 2.057201926491477 Q 0.6703324751420454 1.956493918678977 0.6540194424715908 1.9148790394176132 Q 0.6243896484375 1.839306418678977 0.6024169921875 1.776384721235795 L 0.6067449396306818 2.240806773792613 Q 0.6067449396306818 2.2511272638494315 0.6014182350852273 2.256121049360795 Q 0.5960915305397727 2.2611148348721586 0.5892666903409091 2.2611148348721586 Q 0.5824418501420454 2.2611148348721586 0.5766157670454546 2.2556216708096586 Q 0.5707896839488636 2.2501285067471586 0.5711226029829546 2.2391421786221586 Q 0.5744517933238636 2.1475894442471586 0.5744517933238636 2.0304019442471586 L 0.5744517933238636 1.8329809570312496 Q 0.5744517933238636 1.7813785067471586 0.5737859552556818 1.744091574928977 Q 0.5737859552556818 1.7317735706676132 0.5812766335227273 1.7252816495028407 Q 0.5887673117897727 1.7187897283380678 0.5970902876420454 1.7187897283380678 Q 0.6157337535511364 1.7187897283380678 0.6217262961647727 1.736434437144886 Q 0.6277188387784091 1.754079145951704 0.6387051669034091 1.7838753995028405 Q 0.6496914950284091 1.813671653053977 0.6633411754261364 1.8501262872869315 Q 0.6769908558238636 1.886580921519886 0.6926380504261364 1.9273635031960223 Q 0.7082852450284091 1.9681460848721586 0.7239324396306818 2.008595747514204 Q 0.7395796342329546 2.0490454101562494 0.7542280717329546 2.086998180042613 Q 0.7688765092329546 2.124950949928977 0.7808615944602273 2.1559124200994315 Q 0.7928466796875 2.186873890269886 0.8011696555397727 2.208846546519886 Q 0.8015025745738635 2.2098453036221586 0.8018354936079546 2.2105111416903407 Q 0.7991721413352273 2.1452590110085223 0.7975075461647727 2.0683547141335223 Q 0.7958429509943181 1.974804465553977 0.794677734375 1.9281958007812496 Q 0.7935125177556818 1.8815871360085223 0.7923473011363635 1.833813254616477 Q 0.7911820845170454 1.7860393732244315 0.7895174893465908 1.7390977894176132 Q 0.7895174893465908 1.728444380326704 0.7953435724431818 1.723284135298295 Q 0.8011696555397727 1.718123890269886 0.8081609552556818 1.718123890269886 Q 0.8151522549715908 1.718123890269886 0.8206454190340908 1.723284135298295 Q 0.8261385830965908 1.728444380326704 0.8261385830965908 1.7390977894176132 M 1.1648837002840908 1.8472964754971586 Q 1.175537109375 1.8879125976562496 1.175537109375 1.9370181551846586 Q 1.175537109375 1.9861237127130678 1.1672141335227273 2.0282379705255678 Q 1.1588911576704546 2.0703522283380678 1.1439098011363638 2.1061410245028407 Q 1.1289284446022727 2.141929820667613 1.1081210049715908 2.170727317116477 Q 1.0873135653409092 2.1995248135653407 1.06201171875 2.219832874644886 Q 1.0097434303977273 2.2617806729403407 0.948486328125 2.2617806729403407 Q 0.9388316761363636 2.2617806729403407 0.9360018643465909 2.2556216708096586 Q 0.9331720525568182 2.249462668678977 0.9331720525568182 2.240806773792613 L 0.9331720525568182 2.212175736860795 Q 0.9331720525568182 2.1915347567471586 0.9330055930397727 2.162071422230113 Q 0.9328391335227273 2.1326080877130678 0.9326726740056819 2.096486372514204 Q 0.9325062144886364 2.0603646573153407 0.9320068359375 2.0215795898437494 Q 0.9315074573863636 1.9827945223721586 0.9310080788352273 1.943343616832386 Q 0.9305087002840909 1.9038927112926132 0.9298428622159091 1.867937455610795 Q 0.9278453480113636 1.7933635919744315 0.9251819957386364 1.750417036576704 Q 0.9235174005681819 1.7277785422585223 0.9451571377840909 1.725115189985795 Q 0.9771173650568182 1.7204543235085223 0.9977583451704546 1.7204543235085223 Q 1.131591796875 1.7204543235085223 1.1648837002840908 1.8472964754971586 M 0.9664639559659091 2.230486283735795 Q 1.0040838068181819 2.2291546075994315 1.0413707386363638 2.198193137428977 Q 1.1106178977272727 2.1405981445312494 1.1339222301136362 2.0264069158380678 Q 1.1419122869318181 1.9871224698153405 1.1419122869318181 1.9373510742187496 Q 1.1419122869318181 1.8875796786221586 1.1297607421875 1.8507921253551132 Q 1.1176091974431819 1.8140045720880678 1.0982998934659092 1.7920319158380678 Q 1.06201171875 1.750749955610795 1.0047496448863638 1.750749955610795 Q 0.9797807173295454 1.750749955610795 0.9641335227272727 1.7560766601562496 Q 0.9614701704545454 1.7903673206676132 0.9614701704545454 1.8522902610085223 Q 0.9614701704545454 1.926531205610795 0.9618030894886364 1.9658156516335223 Q 0.9621360085227273 2.0051000976562494 0.9626353870738636 2.0427199485085223 Q 0.963134765625 2.080339799360795 0.9636341441761364 2.114796919389204 Q 0.9641335227272727 2.149254039417613 0.9647993607954546 2.1765534002130678 Q 0.9657981178977273 2.2108440607244315 0.9664639559659091 2.230486283735795 M 1.3010475852272727 1.8238256835937496 Q 1.3008811257102273 1.8419697709517042 1.3008811257102273 1.9698106800426132 Q 1.3008811257102273 2.0976515891335223 1.3048761541193181 2.2388092595880678 Q 1.3052090731534092 2.249462668678977 1.2987171519886362 2.2551222922585223 Q 1.2922252308238635 2.2607819158380678 1.2850674715909092 2.2607819158380678 Q 1.2779097123579546 2.2607819158380678 1.2724165482954546 2.255788130326704 Q 1.2669233842329546 2.2507943448153407 1.2675892223011362 2.233482555042613 Q 1.2682550603693181 2.216170765269886 1.2689208984375 2.1855422141335223 Q 1.2695867365056819 2.1549136629971586 1.2702525745738635 2.120290083451704 Q 1.2715842507102273 2.051708762428977 1.2715842507102273 1.9922827148437496 Q 1.2715842507102273 1.9328566672585223 1.2714177911931819 1.899731223366477 Q 1.2712513316761362 1.8666057794744315 1.2705854936079546 1.838640580610795 Q 1.2695867365056819 1.776717640269886 1.2669233842329546 1.739763627485795 Q 1.2659246271306819 1.729110218394886 1.270751953125 1.723949973366477 Q 1.2755792791193181 1.7187897283380678 1.2832364169034092 1.7187897283380678 Q 1.2908935546875 1.7187897283380678 1.2975519353693181 1.723949973366477 Q 1.3042103160511362 1.729110218394886 1.3037109375 1.7414282226562496 Q 1.3032115589488635 1.7537462269176132 1.3027121803977273 1.765731312144886 Q 1.3022128018465908 1.7777163973721586 1.3017134232954546 1.791698996803977 Q 1.3012140447443181 1.805681596235795 1.3010475852272727 1.8238256835937496 M 1.4135742187499998 2.1079720791903407 Q 1.4252263849431817 2.1079720791903407 1.4282226562499998 2.116960893110795 Q 1.4312189275568181 2.1259497070312494 1.4312189275568181 2.146590687144886 Q 1.4312189275568181 2.1672316672585223 1.4368785511363635 2.1852092950994315 Q 1.442538174715909 2.2031869229403407 1.4525257457386362 2.215504927201704 Q 1.4728338068181817 2.2401409357244315 1.5087890624999998 2.2401409357244315 Q 1.5447443181818181 2.2401409357244315 1.5660511363636362 2.213673872514204 Q 1.5873579545454544 2.187206809303977 1.5873579545454544 2.1376018732244315 Q 1.5873579545454544 2.0713509854403407 1.5310946377840908 2.0197485351562494 Q 1.515114524147727 2.0051000976562494 1.4983021129261362 1.9907845791903405 Q 1.4814897017045454 1.9764690607244315 1.4655095880681817 1.9611547851562496 Q 1.4495294744318181 1.9458405095880678 1.4368785511363635 1.927197043678977 Q 1.4092462713068181 1.886248002485795 1.4092462713068181 1.8339797141335223 Q 1.4092462713068181 1.780379749644886 1.4408735795454544 1.747420765269886 Q 1.4721679687499998 1.714794699928977 1.519442471590909 1.714794699928977 Q 1.5600585937499998 1.714794699928977 1.5860262784090908 1.7420940607244315 Q 1.6149902343749998 1.773388449928977 1.6126598011363635 1.8286530095880678 Q 1.6123268821022725 1.831316361860795 1.6124933416193181 1.8343126331676132 Q 1.6126598011363635 1.8373089044744315 1.6118275035511362 1.8456318803267042 Q 1.610995205965909 1.853954856178977 1.604836203835227 1.8604467773437496 Q 1.5986772017045454 1.8669386985085223 1.5915194424715908 1.8669386985085223 Q 1.5843616832386362 1.8669386985085223 1.5793678977272725 1.8604467773437496 Q 1.574374112215909 1.853954856178977 1.5760387073863635 1.8433014470880678 Q 1.5803666548295454 1.8189983575994315 1.5803666548295454 1.8065138938210223 Q 1.5803666548295454 1.7940294300426132 1.5758722478693181 1.7827101828835223 Q 1.5713778409090908 1.7713909357244315 1.5630548650568181 1.7627350408380678 Q 1.545077237215909 1.7444244939630678 1.5164462002840908 1.7444244939630678 Q 1.4848188920454544 1.7444244939630678 1.4648437499999998 1.766064231178977 Q 1.4428710937499998 1.7900344016335223 1.4428710937499998 1.8249909002130678 Q 1.4428710937499998 1.8599473987926132 1.4505282315340908 1.881420676491477 Q 1.4581853693181817 1.9028939541903405 1.4706698330965908 1.9202057439630678 Q 1.4831542968749998 1.937517533735795 1.4991344105113635 1.9518330522017042 Q 1.515114524147727 1.9661485706676132 1.531594016335227 1.9801311700994315 Q 1.548073508522727 1.9941137695312496 1.5640536221590908 2.008928666548295 Q 1.5800337357954544 2.0237435635653407 1.592684659090909 2.0417211914062494 Q 1.6203169389204544 2.0823373135653407 1.6203169389204544 2.135271439985795 Q 1.6203169389204544 2.197194380326704 1.588356711647727 2.234148393110795 Q 1.5567294034090908 2.270769486860795 1.5037952769886362 2.270769486860795 Q 1.4545232599431817 2.270769486860795 1.423561789772727 2.2328167169744315 Q 1.394264914772727 2.197194380326704 1.394264914772727 2.1525832297585223 Q 1.394264914772727 2.1079720791903407 1.4135742187499998 2.1079720791903407 M 1.7473255504261362 2.113964621803977 Q 1.7499889026988635 2.194198109019886 1.751320578835227 2.237477583451704 Q 1.7516534978693181 2.248796830610795 1.745827414772727 2.254289994673295 Q 1.7400013316761362 2.259783158735795 1.7331764914772727 2.259783158735795 Q 1.726351651278409 2.259783158735795 1.7210249467329544 2.254622913707386 Q 1.7156982421875 2.249462668678977 1.7156982421875 2.238143421519886 L 1.7156982421875 2.1629037198153407 L 1.715365323153409 2.0596988192471586 L 1.715365323153409 1.9671473277698859 Q 1.715365323153409 1.8765933504971586 1.7138671875 1.8519573419744315 Q 1.7123690518465908 1.8273213334517042 1.711703213778409 1.8146704101562496 Q 1.7110373757102273 1.802019486860795 1.7100386186079544 1.7888691850142042 Q 1.7090398615056817 1.7757188831676132 1.7082075639204544 1.7630679598721586 Q 1.7073752663352273 1.750417036576704 1.709872159090909 1.7457561700994315 Q 1.7123690518465908 1.7410953036221586 1.7160311612215908 1.7389313299005678 Q 1.7196932705965908 1.736767356178977 1.7236882990056817 1.736101518110795 Q 1.7276833274147727 1.7354356800426132 1.7406671697443181 1.732106489701704 Q 1.7816162109375 1.722118918678977 1.8132435191761362 1.722118918678977 Q 1.8448708274147727 1.722118918678977 1.8668434836647727 1.7301089754971586 Q 1.8888161399147727 1.7380990323153407 1.9044633345170454 1.754412064985795 Q 1.9377552379261362 1.7887027254971586 1.9377552379261362 1.8522902610085223 Q 1.9377552379261362 1.9388492098721586 1.8771639737215908 2.011092640269886 Q 1.828224875710227 2.069353471235795 1.7473255504261362 2.113964621803977 M 1.7463267933238635 2.0823373135653407 Q 1.9071266867897727 1.9951125266335223 1.9071266867897727 1.8552865323153405 Q 1.9071266867897727 1.7783822354403405 1.853859641335227 1.7564095791903407 Q 1.814242276278409 1.740096546519886 1.7576460404829544 1.7594058504971586 Q 1.7509876598011362 1.761736283735795 1.7449951171875 1.7640667169744315 Q 1.7426646839488635 1.8223275479403405 1.7426646839488635 1.8839175692471586 L 1.7426646839488635 1.9844591175426132 Q 1.7426646839488635 1.9907845791903405 1.7429976029829544 1.996777121803977 Q 1.7433305220170454 2.002769664417613 1.7434969815340908 2.009594504616477 Q 1.7436634410511362 2.0164193448153407 1.7441628196022727 2.027239213423295 Q 1.744662198153409 2.0380590820312494 1.7453280362215908 2.054372114701704 Q 1.7456609552556817 2.066024280894886 1.7463267933238635 2.0823373135653407 M 2.031804865056818 2.0780093661221586 L 2.032470703125 2.1961956232244315 Q 2.032470703125 2.212175736860795 2.032470703125 2.223494984019886 Q 2.032803622159091 2.2284887695312494 2.032803622159091 2.2321508789062494 Q 2.11669921875 2.2321508789062494 2.1443314985795454 2.2294875266335223 Q 2.1729625355113633 2.226491255326704 2.1776234019886362 2.2278229314630678 Q 2.182284268465909 2.2291546075994315 2.185613458806818 2.2321508789062494 Q 2.1922718394886362 2.238143421519886 2.1922718394886362 2.2453011807528407 Q 2.1922718394886362 2.252458939985795 2.185946377840909 2.257619185014204 Q 2.1796209161931817 2.262779430042613 2.168301669034091 2.2621135919744315 Q 2.1137029474431817 2.2577856445312494 2.0697576349431817 2.2606154563210223 Q 2.0258123224431817 2.263445268110795 2.020485617897727 2.2642775656960223 Q 2.0151589133522725 2.2651098632812494 2.0109974254261362 2.2642775656960223 Q 2.0068359375 2.263445268110795 2.003506747159091 2.2607819158380678 Q 1.995849609375 2.2551222922585223 1.9965154474431817 2.2441359641335223 Q 2.0015092329545454 2.1479223632812494 2.0015092329545454 2.031234241832386 Q 2.0015092329545454 1.9145461203835223 2.001675692471591 1.884416947798295 Q 2.0018421519886362 1.8542877752130678 2.0018421519886362 1.8293188476562496 Q 2.0011763139204546 1.7757188831676132 1.99951171875 1.7535797674005678 Q 1.9978471235795454 1.7314406516335223 2.000344016335227 1.7271127041903407 Q 2.002840909090909 1.7227847567471586 2.006503018465909 1.7207872425426132 Q 2.0114968039772725 1.718456809303977 2.0191539417613633 1.7197884854403407 Q 2.0331365411931817 1.722118918678977 2.0561079545454546 1.722118918678977 Q 2.1003861860795454 1.722118918678977 2.1165327592329546 1.720287863991477 Q 2.1326793323863633 1.718456809303977 2.1373401988636362 1.719954944957386 Q 2.142001065340909 1.721453080610795 2.144997336647727 1.7241164328835223 Q 2.1516557173295454 1.729443137428977 2.1516557173295454 1.7371002752130678 Q 2.1516557173295454 1.7447574129971586 2.145663174715909 1.7497511985085223 Q 2.1396706321022725 1.754744984019886 2.1293501420454546 1.7542456054687496 Q 2.1190296519886362 1.7537462269176132 2.1073774857954546 1.752913929332386 Q 2.0957253196022725 1.7520816317471586 2.0824085582386362 1.751415793678977 Q 2.054443359375 1.750417036576704 2.0338023792613633 1.7520816317471586 Q 2.0338023792613633 1.7810455877130678 2.0334694602272725 1.809676624644886 Q 2.0331365411931817 1.8436343661221586 2.032803622159091 1.8785908647017042 Q 2.031804865056818 1.9724740323153405 2.031804865056818 2.0170851828835223 Q 2.0734197443181817 2.0170851828835223 2.0930619673295454 2.015087668678977 Q 2.1143687855113633 2.0127572354403407 2.1198619495738633 2.0170851828835223 Q 2.1253551136363633 2.021413130326704 2.1253551136363633 2.028737349076704 Q 2.1253551136363633 2.047047895951704 2.091064453125 2.0463820578835223 Q 2.084073153409091 2.0460491388494315 2.0784135298295454 2.0460491388494315 L 2.0514470880681817 2.0457162198153407 L 2.031804865056818 2.0457162198153407 L 2.031804865056818 2.0780093661221586 M 2.5050492720170454 1.7390977894176132 Q 2.5030517578125 1.904891468394886 2.5030517578125 1.9736392489346586 Q 2.5030517578125 2.0423870294744315 2.5032182173295454 2.074513716264204 Q 2.503384676846591 2.106640403053977 2.5037175958806817 2.135604359019886 Q 2.5043834339488633 2.196861461292613 2.505215731534091 2.2193334960937494 Q 2.506048029119318 2.241805530894886 2.5040505149147725 2.2461334783380678 Q 2.502053000710227 2.2504614257812494 2.498723810369318 2.2534576970880678 Q 2.485074129971591 2.2657757013494315 2.469759854403409 2.255788130326704 Q 2.4637673117897725 2.251793101917613 2.4611039595170454 2.2438030450994315 Q 2.4318070845170454 2.157909934303977 2.3905251242897725 2.057201926491477 Q 2.3492431640625 1.956493918678977 2.3329301313920454 1.9148790394176132 Q 2.3033003373579546 1.839306418678977 2.2813276811079546 1.776384721235795 L 2.2856556285511362 2.240806773792613 Q 2.2856556285511362 2.2511272638494315 2.2803289240056817 2.256121049360795 Q 2.275002219460227 2.2611148348721586 2.2681773792613638 2.2611148348721586 Q 2.2613525390625 2.2611148348721586 2.255526455965909 2.2556216708096586 Q 2.249700372869318 2.2501285067471586 2.250033291903409 2.2391421786221586 Q 2.253362482244318 2.1475894442471586 2.253362482244318 2.0304019442471586 L 2.253362482244318 1.8329809570312496 Q 2.253362482244318 1.7813785067471586 2.2526966441761362 1.744091574928977 Q 2.2526966441761362 1.7317735706676132 2.2601873224431817 1.7252816495028407 Q 2.267678000710227 1.7187897283380678 2.2760009765625 1.7187897283380678 Q 2.294644442471591 1.7187897283380678 2.300636985085227 1.736434437144886 Q 2.3066295276988638 1.754079145951704 2.3176158558238638 1.7838753995028405 Q 2.3286021839488633 1.813671653053977 2.342251864346591 1.8501262872869315 Q 2.355901544744318 1.886580921519886 2.371548739346591 1.9273635031960223 Q 2.3871959339488633 1.9681460848721586 2.4028431285511362 2.008595747514204 Q 2.418490323153409 2.0490454101562494 2.433138760653409 2.086998180042613 Q 2.447787198153409 2.124950949928977 2.4597722833806817 2.1559124200994315 Q 2.4717573686079546 2.186873890269886 2.480080344460227 2.208846546519886 Q 2.480413263494318 2.2098453036221586 2.480746182528409 2.2105111416903407 Q 2.4780828302556817 2.1452590110085223 2.476418235085227 2.0683547141335223 Q 2.4747536399147725 1.974804465553977 2.4735884232954546 1.9281958007812496 Q 2.4724232066761362 1.8815871360085223 2.471257990056818 1.833813254616477 Q 2.4700927734375 1.7860393732244315 2.4684281782670454 1.7390977894176132 Q 2.4684281782670454 1.728444380326704 2.4742542613636362 1.723284135298295 Q 2.480080344460227 1.718123890269886 2.4870716441761362 1.718123890269886 Q 2.4940629438920454 1.718123890269886 2.4995561079545454 1.723284135298295 Q 2.5050492720170454 1.728444380326704 2.5050492720170454 1.7390977894176132 M 2.6020951704545454 2.1079720791903407 Q 2.613747336647727 2.1079720791903407 2.6167436079545454 2.116960893110795 Q 2.6197398792613633 2.1259497070312494 2.6197398792613633 2.146590687144886 Q 2.6197398792613633 2.1672316672585223 2.6253995028409087 2.1852092950994315 Q 2.6310591264204546 2.2031869229403407 2.6410466974431817 2.215504927201704 Q 2.661354758522727 2.2401409357244315 2.6973100142045454 2.2401409357244315 Q 2.7332652698863633 2.2401409357244315 2.7545720880681817 2.213673872514204 Q 2.77587890625 2.187206809303977 2.77587890625 2.1376018732244315 Q 2.77587890625 2.0713509854403407 2.7196155894886362 2.0197485351562494 Q 2.7036354758522725 2.0051000976562494 2.6868230646306817 1.9907845791903405 Q 2.670010653409091 1.9764690607244315 2.654030539772727 1.9611547851562496 Q 2.6380504261363633 1.9458405095880678 2.6253995028409087 1.927197043678977 Q 2.5977672230113633 1.886248002485795 2.5977672230113633 1.8339797141335223 Q 2.5977672230113633 1.780379749644886 2.62939453125 1.747420765269886 Q 2.6606889204545454 1.714794699928977 2.707963423295454 1.714794699928977 Q 2.7485795454545454 1.714794699928977 2.7745472301136362 1.7420940607244315 Q 2.8035111860795454 1.773388449928977 2.8011807528409087 1.8286530095880678 Q 2.800847833806818 1.831316361860795 2.8010142933238633 1.8343126331676132 Q 2.8011807528409087 1.8373089044744315 2.8003484552556817 1.8456318803267042 Q 2.799516157670454 1.853954856178977 2.7933571555397725 1.8604467773437496 Q 2.787198153409091 1.8669386985085223 2.7800403941761362 1.8669386985085223 Q 2.7728826349431817 1.8669386985085223 2.767888849431818 1.8604467773437496 Q 2.762895063920454 1.853954856178977 2.7645596590909087 1.8433014470880678 Q 2.768887606534091 1.8189983575994315 2.768887606534091 1.8065138938210223 Q 2.768887606534091 1.7940294300426132 2.7643931995738633 1.7827101828835223 Q 2.7598987926136362 1.7713909357244315 2.7515758167613633 1.7627350408380678 Q 2.733598188920454 1.7444244939630678 2.7049671519886362 1.7444244939630678 Q 2.67333984375 1.7444244939630678 2.6533647017045454 1.766064231178977 Q 2.6313920454545454 1.7900344016335223 2.6313920454545454 1.8249909002130678 Q 2.6313920454545454 1.8599473987926132 2.6390491832386362 1.881420676491477 Q 2.646706321022727 1.9028939541903405 2.6591907848011362 1.9202057439630678 Q 2.6716752485795454 1.937517533735795 2.6876553622159087 1.9518330522017042 Q 2.7036354758522725 1.9661485706676132 2.7201149680397725 1.9801311700994315 Q 2.7365944602272725 1.9941137695312496 2.7525745738636362 2.008928666548295 Q 2.7685546875 2.0237435635653407 2.781205610795454 2.0417211914062494 Q 2.808837890625 2.0823373135653407 2.808837890625 2.135271439985795 Q 2.808837890625 2.197194380326704 2.7768776633522725 2.234148393110795 Q 2.7452503551136362 2.270769486860795 2.6923162286931817 2.270769486860795 Q 2.643044211647727 2.270769486860795 2.6120827414772725 2.2328167169744315 Q 2.5827858664772725 2.197194380326704 2.5827858664772725 2.1525832297585223 Q 2.5827858664772725 2.1079720791903407 2.6020951704545454 2.1079720791903407 M 2.9991011186079546 1.721120161576704 Q 3.0070911754261362 1.721120161576704 3.0137495561079546 1.7277785422585223 Q 3.0204079367897725 1.7344369229403407 3.024236505681818 1.7555772816051132 Q 3.0280650745738633 1.776717640269886 3.035888671875 1.8160020862926132 Q 3.0437122691761362 1.8552865323153405 3.0533669211647725 1.8998976828835223 Q 3.063021573153409 1.9445088334517042 3.073674982244318 1.9919497958096586 Q 3.084328391335227 2.039390758167613 3.0949818004261362 2.084001908735795 Q 3.1206165660511362 2.1885384854403407 3.1349320845170454 2.2368117453835223 Q 3.1382612748579546 2.249129749644886 3.1331010298295454 2.256453968394886 Q 3.1279407848011362 2.263778187144886 3.121615323153409 2.263778187144886 Q 3.1152898615056817 2.263778187144886 3.1101296164772725 2.260116077769886 Q 3.1049693714488633 2.256453968394886 3.1009743430397725 2.238476340553977 Q 3.0969793146306817 2.2204987127130678 3.087990500710227 2.1802155095880678 Q 3.0790016867897725 2.1399323064630678 3.0686811967329546 2.0936565607244315 Q 3.0683482776988633 2.091659046519886 3.0680153586647725 2.0899944513494315 Q 3.045376864346591 2.0889956942471586 3.004094904119318 2.0889956942471586 Q 2.9554887251420454 2.0889956942471586 2.9298539595170454 2.0903273703835223 Q 2.9295210404829546 2.0923248845880678 2.9291881214488633 2.094322398792613 Q 2.908880060369318 2.1922005948153407 2.8992254083806817 2.245800559303977 Q 2.8958962180397725 2.262779430042613 2.8815806995738633 2.262779430042613 Q 2.8665993430397725 2.262779430042613 2.8632701526988633 2.248130992542613 Q 2.862271395596591 2.2438030450994315 2.865267666903409 2.234481312144886 Q 2.868263938210227 2.2251595791903407 2.874090021306818 2.202354625355113 Q 2.879916104403409 2.179549671519886 2.8867409446022725 2.1500863370028407 Q 2.8935657848011362 2.120623002485795 2.901222922585227 2.0856665039062494 Q 2.908880060369318 2.050710005326704 2.9168701171875 2.013755992542613 Q 2.9248601740056817 1.9768019797585223 2.9328502308238633 1.939348588423295 Q 2.9408402876420454 1.9018951970880678 2.9481645063920454 1.8669386985085223 Q 2.9554887251420454 1.831982199928977 2.961980646306818 1.8013536487926132 Q 2.968472567471591 1.7707250976562496 2.9724675958806817 1.7527474698153407 Q 2.978793057528409 1.721120161576704 2.9991011186079546 1.721120161576704 M 2.9361794211647725 2.0593659002130678 Q 2.9614812677556817 2.0606975763494315 3.004427823153409 2.0606975763494315 Q 3.0400501598011362 2.0606975763494315 3.0613569779829546 2.0596988192471586 Q 3.0543656782670454 2.029403187144886 3.0473743785511362 1.9974429598721586 Q 3.0363880504261362 1.9478380237926132 3.026400479403409 1.901229359019886 Q 3.0097545276988633 1.8249909002130678 2.997769442471591 1.7673959073153405 Q 2.9901123046875 1.805681596235795 2.975796786221591 1.871599564985795 Q 2.9571533203125 1.959490189985795 2.9474986683238633 2.0054330166903407 Q 2.941839044744318 2.033065296519886 2.9361794211647725 2.0593659002130678 M 3.309548117897727 1.9787994939630678 L 3.3228648792613633 1.9761361416903405 Q 3.373135653409091 1.9768019797585223 3.401433771306818 2.0006056906960223 Q 3.4297318892045454 2.0244094016335223 3.4297318892045454 2.0683547141335223 Q 3.4297318892045454 2.1219546786221586 3.397771661931818 2.167564586292613 Q 3.354825106534091 2.2291546075994315 3.276922052556818 2.2534576970880678 Q 3.228981711647727 2.2681061345880678 3.215664950284091 2.259117320667613 Q 3.207674893465909 2.2537906161221586 3.207674893465909 2.2401409357244315 L 3.211004083806818 1.9731398703835223 L 3.211004083806818 1.9368516956676132 Q 3.211004083806818 1.8892442737926132 3.209505948153409 1.8589486416903405 Q 3.2080078125 1.8286530095880678 3.207009055397727 1.8083449485085223 Q 3.2060102982954546 1.788036887428977 3.205178000710227 1.771224476207386 Q 3.204345703125 1.754412064985795 3.206509676846591 1.7499176580255678 Q 3.2086736505681817 1.7454232510653407 3.2123357599431817 1.743092817826704 Q 3.2206587357954546 1.7374331942471586 3.2591108842329546 1.7301089754971586 Q 3.2975630326704546 1.7227847567471586 3.3185369318181817 1.7227847567471586 Q 3.427401455965909 1.7227847567471586 3.427401455965909 1.8146704101562496 Q 3.427401455965909 1.8892442737926132 3.3488325639204546 1.9505013760653405 Q 3.3305220170454546 1.9648168945312496 3.309548117897727 1.9787994939630678 M 3.240966796875 2.2278229314630678 Q 3.2685990767045454 2.226824174360795 3.2935680042613633 2.215504927201704 Q 3.321866122159091 2.2021881658380678 3.339177911931818 2.189037863991477 Q 3.3564897017045454 2.175887562144886 3.3701393821022725 2.1585757723721586 Q 3.4001020951704546 2.120623002485795 3.4001020951704546 2.0720168235085223 Q 3.4001020951704546 2.0377261629971586 3.373135653409091 2.0194156161221586 Q 3.3488325639204546 2.003102583451704 3.3118785511363633 2.003102583451704 Q 3.2799183238636362 2.003102583451704 3.258611505681818 2.010426802201704 Q 3.2459605823863638 2.014754749644886 3.2386363636363638 2.018083939985795 Q 3.2386363636363638 2.025741077769886 3.2389692826704546 2.0343969726562494 Q 3.2389692826704546 2.058034224076704 3.2391357421875 2.0859994229403407 Q 3.2393022017045454 2.113964621803977 3.2396351207386362 2.141929820667613 Q 3.240300958806818 2.2021881658380678 3.240966796875 2.2278229314630678 M 3.2386363636363638 1.9871224698153405 Q 3.284246271306818 1.977800736860795 3.335515802556818 1.9325237482244315 Q 3.372136896306818 1.9002306019176132 3.3881170099431817 1.860613236860795 Q 3.3961070667613633 1.8399722567471586 3.3961070667613633 1.8193312766335223 Q 3.3961070667613633 1.798690296519886 3.389615145596591 1.785539994673295 Q 3.383123224431818 1.7723896928267042 3.372136896306818 1.7640667169744315 Q 3.351162997159091 1.7490853604403407 3.314541903409091 1.7490853604403407 Q 3.272927024147727 1.7490853604403407 3.240300958806818 1.7640667169744315 Q 3.240300958806818 1.7683946644176132 3.239968039772727 1.7753859641335223 Q 3.2396351207386362 1.787371049360795 3.2393022017045454 1.8116741388494315 Q 3.2386363636363638 1.8602803178267042 3.2386363636363638 1.919206986860795 L 3.2386363636363638 1.9871224698153405 M 3.5284423828125 1.7197884854403407 Q 3.5487504438920454 1.7197884854403407 3.5487504438920454 1.7487524414062496 Q 3.5487504438920454 1.788036887428977 3.548251065340909 1.8314828213778405 Q 3.5477516867897725 1.8749287553267042 3.5474187677556817 1.9102181729403405 Q 3.547085848721591 1.945507590553977 3.5467529296875 1.992449174360795 Q 3.546087091619318 2.0899944513494315 3.5454212535511362 2.2318179598721586 Q 3.611672141335227 2.2331496360085223 3.6725963245738633 2.227157093394886 Q 3.6845814098011362 2.2258254172585223 3.6912397904829546 2.2321508789062494 Q 3.6978981711647725 2.238476340553977 3.6978981711647725 2.245467640269886 Q 3.6978981711647725 2.252458939985795 3.6919056285511362 2.257619185014204 Q 3.6859130859375 2.262779430042613 3.674260919744318 2.2621135919744315 Q 3.6363081498579546 2.259117320667613 3.592529296875 2.2607819158380678 Q 3.5487504438920454 2.2624465110085223 3.539761629971591 2.263778187144886 Q 3.5307728160511362 2.2651098632812494 3.526611328125 2.2642775656960223 Q 3.5224498401988638 2.263445268110795 3.5191206498579546 2.2607819158380678 Q 3.5117964311079546 2.2551222922585223 3.5124622691761362 2.2441359641335223 Q 3.516457297585227 2.1662329101562494 3.516457297585227 2.0405559747869315 Q 3.516457297585227 1.9148790394176132 3.5162908380681817 1.885082785866477 Q 3.5161243785511362 1.8552865323153405 3.5154585404829546 1.8303176047585223 Q 3.514126864346591 1.780712668678977 3.509798916903409 1.7410953036221586 Q 3.5088001598011362 1.7304418945312496 3.5147927024147725 1.725115189985795 Q 3.520785245028409 1.7197884854403407 3.5284423828125 1.7197884854403407 M 3.7999378551136362 2.0780093661221586 L 3.800603693181818 2.1961956232244315 Q 3.800603693181818 2.212175736860795 3.800603693181818 2.223494984019886 Q 3.8009366122159087 2.2284887695312494 3.8009366122159087 2.2321508789062494 Q 3.884832208806818 2.2321508789062494 3.9124644886363633 2.2294875266335223 Q 3.9410955255681817 2.226491255326704 3.945756392045454 2.2278229314630678 Q 3.950417258522727 2.2291546075994315 3.9537464488636362 2.2321508789062494 Q 3.960404829545454 2.238143421519886 3.960404829545454 2.2453011807528407 Q 3.960404829545454 2.252458939985795 3.954079367897727 2.257619185014204 Q 3.94775390625 2.262779430042613 3.9364346590909087 2.2621135919744315 Q 3.8818359375 2.2577856445312494 3.837890625 2.2606154563210223 Q 3.7939453125 2.263445268110795 3.7886186079545454 2.2642775656960223 Q 3.783291903409091 2.2651098632812494 3.7791304154829546 2.2642775656960223 Q 3.774968927556818 2.263445268110795 3.7716397372159087 2.2607819158380678 Q 3.763982599431818 2.2551222922585223 3.7646484375 2.2441359641335223 Q 3.7696422230113633 2.1479223632812494 3.7696422230113633 2.031234241832386 Q 3.7696422230113633 1.9145461203835223 3.7698086825284087 1.884416947798295 Q 3.7699751420454546 1.8542877752130678 3.7699751420454546 1.8293188476562496 Q 3.7693093039772725 1.7757188831676132 3.767644708806818 1.7535797674005678 Q 3.7659801136363633 1.7314406516335223 3.7684770063920454 1.7271127041903407 Q 3.770973899147727 1.7227847567471586 3.774636008522727 1.7207872425426132 Q 3.779629794034091 1.718456809303977 3.7872869318181817 1.7197884854403407 Q 3.80126953125 1.722118918678977 3.8242409446022725 1.722118918678977 Q 3.8685191761363633 1.722118918678977 3.8846657492897725 1.720287863991477 Q 3.9008123224431817 1.718456809303977 3.905473188920454 1.719954944957386 Q 3.910134055397727 1.721453080610795 3.9131303267045454 1.7241164328835223 Q 3.9197887073863633 1.729443137428977 3.9197887073863633 1.7371002752130678 Q 3.9197887073863633 1.7447574129971586 3.913796164772727 1.7497511985085223 Q 3.907803622159091 1.754744984019886 3.8974831321022725 1.7542456054687496 Q 3.887162642045454 1.7537462269176132 3.8755104758522725 1.752913929332386 Q 3.863858309659091 1.7520816317471586 3.850541548295454 1.751415793678977 Q 3.822576349431818 1.750417036576704 3.8019353693181817 1.7520816317471586 Q 3.8019353693181817 1.7810455877130678 3.801602450284091 1.809676624644886 Q 3.80126953125 1.8436343661221586 3.8009366122159087 1.8785908647017042 Q 3.7999378551136362 1.9724740323153405 3.7999378551136362 2.0170851828835223 Q 3.841552734375 2.0170851828835223 3.8611949573863633 2.015087668678977 Q 3.8825017755681817 2.0127572354403407 3.8879949396306817 2.0170851828835223 Q 3.8934881036931817 2.021413130326704 3.8934881036931817 2.028737349076704 Q 3.8934881036931817 2.047047895951704 3.859197443181818 2.0463820578835223 Q 3.8522061434659087 2.0460491388494315 3.8465465198863633 2.0460491388494315 L 3.819580078125 2.0457162198153407 L 3.7999378551136362 2.0457162198153407 L 3.7999378551136362 2.0780093661221586 M 4.1774680397727275 2.106307484019886 Q 4.180131392045455 2.1818801047585223 4.181795987215909 2.237477583451704 Q 4.18212890625 2.248796830610795 4.176136363636364 2.254289994673295 Q 4.1701438210227275 2.259783158735795 4.163318980823864 2.259783158735795 Q 4.156494140625 2.259783158735795 4.151333895596591 2.254622913707386 Q 4.1461736505681825 2.249462668678977 4.1461736505681825 2.2391421786221586 L 4.1461736505681825 1.988787064985795 Q 4.1461736505681825 1.8589486416903405 4.139848188920455 1.7557437411221586 Q 4.1388494318181825 1.7410953036221586 4.147838245738637 1.7354356800426132 Q 4.151500355113637 1.733105246803977 4.1554953835227275 1.7326058682528407 Q 4.159490411931818 1.732106489701704 4.173140092329546 1.7281114612926132 Q 4.207430752840909 1.718456809303977 4.241222034801137 1.718456809303977 Q 4.275013316761364 1.718456809303977 4.297152432528409 1.7259474875710223 Q 4.319291548295455 1.7334381658380678 4.3349387428977275 1.7487524414062496 Q 4.368230646306818 1.7813785067471586 4.368230646306818 1.8449660422585223 Q 4.368230646306818 1.926864124644886 4.3036443536931825 2.003102583451704 Q 4.293323863636364 2.0154205877130678 4.2816716974431825 2.0274056729403407 Q 4.314297762784091 2.127281383167613 4.358243075284091 2.231152121803977 Q 4.366233132102273 2.249129749644886 4.350253018465909 2.2574527254971586 Q 4.346257990056818 2.259450239701704 4.340931285511364 2.259450239701704 Q 4.328946200284091 2.259450239701704 4.3239524147727275 2.245800559303977 Q 4.313299005681818 2.2148390891335223 4.304643110795455 2.1863745117187494 Q 4.295987215909091 2.157909934303977 4.287664240056818 2.130943492542613 Q 4.273015802556818 2.0823373135653407 4.260031960227273 2.047713734019886 Q 4.223410866477273 2.080006880326704 4.1774680397727275 2.106307484019886 M 4.176469282670455 2.0746801757812494 Q 4.229070490056818 2.044051624644886 4.275013316761364 1.9914504172585223 Q 4.3366033380681825 1.919872824928977 4.3366033380681825 1.8479623135653405 Q 4.3366033380681825 1.773388449928977 4.284335049715909 1.7517487127130678 Q 4.255704012784091 1.739763627485795 4.21142578125 1.7484195223721586 Q 4.190451882102273 1.7524145507812496 4.177135120738637 1.7590729314630678 Q 4.172807173295455 1.8592815607244315 4.172807173295455 1.927197043678977 Q 4.172807173295455 1.9994404740767042 4.1729736328125 2.004933638139204 Q 4.173140092329546 2.010426802201704 4.173306551846591 2.0149212091619315 Q 4.173473011363637 2.0194156161221586 4.1738059303977275 2.024242942116477 Q 4.174138849431818 2.029070268110795 4.174638227982955 2.0380590820312494 Q 4.175137606534091 2.047047895951704 4.175803444602273 2.061363414417613 Q 4.176136363636364 2.0673559570312494 4.176469282670455 2.0746801757812494 M 4.4805908203125 2.0780093661221586 L 4.4812566583806825 2.1961956232244315 Q 4.4812566583806825 2.212175736860795 4.4812566583806825 2.223494984019886 Q 4.481589577414773 2.2284887695312494 4.481589577414773 2.2321508789062494 Q 4.5654851740056825 2.2321508789062494 4.5931174538352275 2.2294875266335223 Q 4.621748490767046 2.226491255326704 4.626409357244318 2.2278229314630678 Q 4.631070223721592 2.2291546075994315 4.6343994140625 2.2321508789062494 Q 4.641057794744318 2.238143421519886 4.641057794744318 2.2453011807528407 Q 4.641057794744318 2.252458939985795 4.634732333096592 2.257619185014204 Q 4.628406871448864 2.262779430042613 4.617087624289773 2.2621135919744315 Q 4.562488902698864 2.2577856445312494 4.518543590198864 2.2606154563210223 Q 4.474598277698864 2.263445268110795 4.469271573153409 2.2642775656960223 Q 4.463944868607955 2.2651098632812494 4.459783380681818 2.2642775656960223 Q 4.4556218927556825 2.263445268110795 4.452292702414773 2.2607819158380678 Q 4.4446355646306825 2.2551222922585223 4.445301402698864 2.2441359641335223 Q 4.4502951882102275 2.1479223632812494 4.4502951882102275 2.031234241832386 Q 4.4502951882102275 1.9145461203835223 4.450461647727273 1.884416947798295 Q 4.450628107244318 1.8542877752130678 4.450628107244318 1.8293188476562496 Q 4.449962269176137 1.7757188831676132 4.4482976740056825 1.7535797674005678 Q 4.4466330788352275 1.7314406516335223 4.449129971590909 1.7271127041903407 Q 4.451626864346592 1.7227847567471586 4.455288973721592 1.7207872425426132 Q 4.460282759232955 1.718456809303977 4.467939897017046 1.7197884854403407 Q 4.481922496448864 1.722118918678977 4.504893909801137 1.722118918678977 Q 4.5491721413352275 1.722118918678977 4.565318714488637 1.720287863991477 Q 4.581465287642046 1.718456809303977 4.586126154119318 1.719954944957386 Q 4.590787020596592 1.721453080610795 4.593783291903409 1.7241164328835223 Q 4.6004416725852275 1.729443137428977 4.6004416725852275 1.7371002752130678 Q 4.6004416725852275 1.7447574129971586 4.594449129971592 1.7497511985085223 Q 4.588456587357955 1.754744984019886 4.578136097301137 1.7542456054687496 Q 4.567815607244318 1.7537462269176132 4.556163441051137 1.752913929332386 Q 4.544511274857955 1.7520816317471586 4.531194513494318 1.751415793678977 Q 4.5032293146306825 1.750417036576704 4.482588334517046 1.7520816317471586 Q 4.482588334517046 1.7810455877130678 4.482255415482955 1.809676624644886 Q 4.481922496448864 1.8436343661221586 4.481589577414773 1.8785908647017042 Q 4.4805908203125 1.9724740323153405 4.4805908203125 2.0170851828835223 Q 4.522205699573864 2.0170851828835223 4.5418479225852275 2.015087668678977 Q 4.563154740767046 2.0127572354403407 4.568647904829546 2.0170851828835223 Q 4.574141068892046 2.021413130326704 4.574141068892046 2.028737349076704 Q 4.574141068892046 2.047047895951704 4.5398504083806825 2.0463820578835223 Q 4.532859108664773 2.0460491388494315 4.5271994850852275 2.0460491388494315 L 4.500233043323864 2.0457162198153407 L 4.4805908203125 2.0457162198153407 L 4.4805908203125 2.0780093661221586 M 4.544844193892046 1.6527053000710223 Q 4.5564963600852275 1.6455475408380678 4.5711447975852275 1.6333959960937496 Q 4.5857932350852275 1.6212444513494315 4.595780806107955 1.6230755060369315 Q 4.6057683771306825 1.6249065607244315 4.609763405539773 1.6315649414062496 Q 4.618086381392046 1.644881702769886 4.601107510653409 1.6568667879971586 Q 4.593783291903409 1.662526411576704 4.570478959517046 1.673845658735795 Q 4.5471746271306825 1.685164905894886 4.537852894176137 1.690990988991477 Q 4.528531161221592 1.6968170720880678 4.523703835227273 1.6988145862926132 Q 4.518876509232955 1.7008121004971586 4.5125510475852275 1.699813343394886 Q 4.500233043323864 1.6978158291903407 4.501897638494318 1.6858307439630678 Q 4.502896395596592 1.6801711203835223 4.5088889382102275 1.6755102539062496 Q 4.514881480823864 1.670849387428977 4.524036754261364 1.665356223366477 Q 4.533192027698864 1.659863059303977 4.544844193892046 1.6527053000710223 M 4.707142223011364 2.1119671075994315 L 4.706809303977273 1.952498890269886 Q 4.706809303977273 1.8406380948153405 4.698819247159092 1.740096546519886 Q 4.697820490056819 1.725115189985795 4.7084738991477275 1.7207872425426132 Q 4.714466441761364 1.718123890269886 4.722456498579546 1.7194555664062496 Q 4.736439098011364 1.721785999644886 4.756414240056819 1.721785999644886 Q 4.776389382102273 1.721785999644886 4.785544655539773 1.7216195401278407 Q 4.794699928977273 1.721453080610795 4.804021661931819 1.721120161576704 Q 4.8273259943181825 1.7201214044744315 4.835815429687501 1.7191226473721586 Q 4.844304865056819 1.718123890269886 4.848799272017046 1.7194555664062496 Q 4.853293678977273 1.7207872425426132 4.8566228693181825 1.7234505948153407 Q 4.863281250000001 1.729443137428977 4.863281250000001 1.7369338156960223 Q 4.863281250000001 1.7444244939630678 4.857288707386364 1.7494182794744315 Q 4.8512961647727275 1.754412064985795 4.840809215198864 1.7539126864346586 Q 4.830322265625001 1.7534133078835223 4.817671342329546 1.752581010298295 Q 4.805020419034092 1.7517487127130678 4.790371981534092 1.751415793678977 Q 4.7597434303977275 1.750417036576704 4.73843661221591 1.7517487127130678 L 4.73843661221591 1.809343705610795 Q 4.73843661221591 1.8433014470880678 4.738103693181819 1.8785908647017042 Q 4.7377707741477275 1.9728069513494315 4.7377707741477275 2.0170851828835223 Q 4.7833806818181825 2.0170851828835223 4.809348366477273 2.014421830610795 Q 4.836980646306819 2.011425559303977 4.836980646306819 2.028737349076704 Q 4.836980646306819 2.0453833007812494 4.798694957386364 2.0457162198153407 Q 4.7890403053977275 2.0460491388494315 4.7833806818181825 2.0460491388494315 L 4.75674715909091 2.0457162198153407 L 4.7377707741477275 2.0457162198153407 L 4.740767045454546 2.2404738547585223 Q 4.740767045454546 2.249129749644886 4.736272638494319 2.254955832741477 Q 4.731778231534092 2.2607819158380678 4.726451526988637 2.2607819158380678 Q 4.7211248224431825 2.2607819158380678 4.717795632102273 2.2599496182528407 Q 4.714466441761364 2.259117320667613 4.711470170454546 2.256786887428977 Q 4.704478870738637 2.2507943448153407 4.705144708806819 2.2404738547585223 Q 4.707142223011364 2.2021881658380678 4.707142223011364 2.1119671075994315 M 4.939686168323864 2.0780093661221586 L 4.940352006392047 2.1961956232244315 Q 4.940352006392047 2.212175736860795 4.940352006392047 2.223494984019886 Q 4.940684925426138 2.2284887695312494 4.940684925426138 2.2321508789062494 Q 5.024580522017047 2.2321508789062494 5.052212801846592 2.2294875266335223 Q 5.08084383877841 2.226491255326704 5.0855047052556825 2.2278229314630678 Q 5.090165571732956 2.2291546075994315 5.093494762073864 2.2321508789062494 Q 5.1001531427556825 2.238143421519886 5.1001531427556825 2.2453011807528407 Q 5.1001531427556825 2.252458939985795 5.093827681107956 2.257619185014204 Q 5.087502219460228 2.262779430042613 5.076182972301138 2.2621135919744315 Q 5.021584250710228 2.2577856445312494 4.977638938210228 2.2606154563210223 Q 4.933693625710228 2.263445268110795 4.928366921164773 2.2642775656960223 Q 4.923040216619319 2.2651098632812494 4.9188787286931825 2.2642775656960223 Q 4.914717240767047 2.263445268110795 4.911388050426138 2.2607819158380678 Q 4.903730912642047 2.2551222922585223 4.904396750710228 2.2441359641335223 Q 4.909390536221592 2.1479223632812494 4.909390536221592 2.031234241832386 Q 4.909390536221592 1.9145461203835223 4.909556995738638 1.884416947798295 Q 4.9097234552556825 1.8542877752130678 4.9097234552556825 1.8293188476562496 Q 4.909057617187501 1.7757188831676132 4.907393022017047 1.7535797674005678 Q 4.905728426846592 1.7314406516335223 4.908225319602273 1.7271127041903407 Q 4.910722212357956 1.7227847567471586 4.914384321732956 1.7207872425426132 Q 4.919378107244319 1.718456809303977 4.92703524502841 1.7197884854403407 Q 4.941017844460228 1.722118918678977 4.963989257812501 1.722118918678977 Q 5.008267489346592 1.722118918678977 5.024414062500001 1.720287863991477 Q 5.04056063565341 1.718456809303977 5.0452215021306825 1.719954944957386 Q 5.049882368607956 1.721453080610795 5.052878639914773 1.7241164328835223 Q 5.059537020596592 1.729443137428977 5.059537020596592 1.7371002752130678 Q 5.059537020596592 1.7447574129971586 5.053544477982956 1.7497511985085223 Q 5.047551935369319 1.754744984019886 5.037231445312501 1.7542456054687496 Q 5.0269109552556825 1.7537462269176132 5.015258789062501 1.752913929332386 Q 5.003606622869319 1.7520816317471586 4.9902898615056825 1.751415793678977 Q 4.962324662642047 1.750417036576704 4.94168368252841 1.7520816317471586 Q 4.94168368252841 1.7810455877130678 4.941350763494319 1.809676624644886 Q 4.941017844460228 1.8436343661221586 4.940684925426138 1.8785908647017042 Q 4.939686168323864 1.9724740323153405 4.939686168323864 2.0170851828835223 Q 4.981301047585228 2.0170851828835223 5.000943270596592 2.015087668678977 Q 5.02225008877841 2.0127572354403407 5.02774325284091 2.0170851828835223 Q 5.03323641690341 2.021413130326704 5.03323641690341 2.028737349076704 Q 5.03323641690341 2.047047895951704 4.998945756392047 2.0463820578835223 Q 4.991954456676138 2.0460491388494315 4.986294833096592 2.0460491388494315 L 4.959328391335228 2.0457162198153407 L 4.939686168323864 2.0457162198153407 L 4.939686168323864 2.0780093661221586 M 5.00393954190341 1.6527053000710223 Q 5.015591708096592 1.6455475408380678 5.030240145596592 1.6333959960937496 Q 5.044888583096592 1.6212444513494315 5.054876154119319 1.6230755060369315 Q 5.064863725142047 1.6249065607244315 5.068858753551138 1.6315649414062496 Q 5.07718172940341 1.644881702769886 5.060202858664773 1.6568667879971586 Q 5.052878639914773 1.662526411576704 5.02957430752841 1.673845658735795 Q 5.006269975142047 1.685164905894886 4.996948242187501 1.690990988991477 Q 4.987626509232956 1.6968170720880678 4.982799183238638 1.6988145862926132 Q 4.977971857244319 1.7008121004971586 4.971646395596592 1.699813343394886 Q 4.959328391335228 1.6978158291903407 4.9609929865056825 1.6858307439630678 Q 4.961991743607956 1.6801711203835223 4.967984286221592 1.6755102539062496 Q 4.973976828835228 1.670849387428977 4.983132102272728 1.665356223366477 Q 4.992287375710228 1.659863059303977 5.00393954190341 1.6527053000710223 M 5.195534446022728 2.106307484019886 Q 5.198197798295456 2.1818801047585223 5.19986239346591 2.237477583451704 Q 5.200195312500001 2.248796830610795 5.194202769886365 2.254289994673295 Q 5.188210227272728 2.259783158735795 5.181385387073865 2.259783158735795 Q 5.174560546875001 2.259783158735795 5.169400301846592 2.254622913707386 Q 5.164240056818183 2.249462668678977 5.164240056818183 2.2391421786221586 L 5.164240056818183 1.988787064985795 Q 5.164240056818183 1.8589486416903405 5.157914595170456 1.7557437411221586 Q 5.156915838068183 1.7410953036221586 5.165904651988638 1.7354356800426132 Q 5.169566761363638 1.733105246803977 5.173561789772728 1.7326058682528407 Q 5.177556818181819 1.732106489701704 5.191206498579547 1.7281114612926132 Q 5.22549715909091 1.718456809303977 5.259288441051138 1.718456809303977 Q 5.293079723011365 1.718456809303977 5.31521883877841 1.7259474875710223 Q 5.337357954545456 1.7334381658380678 5.353005149147728 1.7487524414062496 Q 5.386297052556819 1.7813785067471586 5.386297052556819 1.8449660422585223 Q 5.386297052556819 1.926864124644886 5.321710759943183 2.003102583451704 Q 5.311390269886365 2.0154205877130678 5.299738103693183 2.0274056729403407 Q 5.332364169034092 2.127281383167613 5.376309481534092 2.231152121803977 Q 5.384299538352274 2.249129749644886 5.36831942471591 2.2574527254971586 Q 5.364324396306819 2.259450239701704 5.358997691761365 2.259450239701704 Q 5.347012606534092 2.259450239701704 5.342018821022728 2.245800559303977 Q 5.331365411931819 2.2148390891335223 5.322709517045456 2.1863745117187494 Q 5.314053622159092 2.157909934303977 5.305730646306819 2.130943492542613 Q 5.291082208806819 2.0823373135653407 5.278098366477274 2.047713734019886 Q 5.241477272727274 2.080006880326704 5.195534446022728 2.106307484019886 M 5.194535688920456 2.0746801757812494 Q 5.247136896306819 2.044051624644886 5.293079723011365 1.9914504172585223 Q 5.354669744318183 1.919872824928977 5.354669744318183 1.8479623135653405 Q 5.354669744318183 1.773388449928977 5.30240145596591 1.7517487127130678 Q 5.273770419034092 1.739763627485795 5.229492187500001 1.7484195223721586 Q 5.208518288352274 1.7524145507812496 5.195201526988638 1.7590729314630678 Q 5.190873579545456 1.8592815607244315 5.190873579545456 1.927197043678977 Q 5.190873579545456 1.9994404740767042 5.191040039062501 2.004933638139204 Q 5.191206498579547 2.010426802201704 5.191372958096592 2.0149212091619315 Q 5.191539417613638 2.0194156161221586 5.191872336647728 2.024242942116477 Q 5.192205255681819 2.029070268110795 5.192704634232956 2.0380590820312494 Q 5.193204012784092 2.047047895951704 5.193869850852274 2.061363414417613 Q 5.194202769886365 2.0673559570312494 5.194535688920456 2.0746801757812494 M 5.498657226562501 2.0780093661221586 L 5.499323064630683 2.1961956232244315 Q 5.499323064630683 2.212175736860795 5.499323064630683 2.223494984019886 Q 5.499655983664774 2.2284887695312494 5.499655983664774 2.2321508789062494 Q 5.583551580255683 2.2321508789062494 5.611183860085228 2.2294875266335223 Q 5.639814897017047 2.226491255326704 5.644475763494319 2.2278229314630678 Q 5.649136629971593 2.2291546075994315 5.652465820312501 2.2321508789062494 Q 5.659124200994319 2.238143421519886 5.659124200994319 2.2453011807528407 Q 5.659124200994319 2.252458939985795 5.652798739346593 2.257619185014204 Q 5.646473277698865 2.262779430042613 5.635154030539774 2.2621135919744315 Q 5.580555308948865 2.2577856445312494 5.536609996448865 2.2606154563210223 Q 5.492664683948865 2.263445268110795 5.48733797940341 2.2642775656960223 Q 5.482011274857956 2.2651098632812494 5.477849786931819 2.2642775656960223 Q 5.473688299005683 2.263445268110795 5.470359108664774 2.2607819158380678 Q 5.462701970880683 2.2551222922585223 5.463367808948865 2.2441359641335223 Q 5.468361594460228 2.1479223632812494 5.468361594460228 2.031234241832386 Q 5.468361594460228 1.9145461203835223 5.468528053977274 1.884416947798295 Q 5.468694513494319 1.8542877752130678 5.468694513494319 1.8293188476562496 Q 5.468028675426138 1.7757188831676132 5.466364080255683 1.7535797674005678 Q 5.464699485085228 1.7314406516335223 5.46719637784091 1.7271127041903407 Q 5.469693270596593 1.7227847567471586 5.473355379971593 1.7207872425426132 Q 5.478349165482956 1.718456809303977 5.486006303267047 1.7197884854403407 Q 5.499988902698865 1.722118918678977 5.522960316051138 1.722118918678977 Q 5.567238547585228 1.722118918678977 5.583385120738638 1.720287863991477 Q 5.599531693892047 1.718456809303977 5.604192560369319 1.719954944957386 Q 5.608853426846593 1.721453080610795 5.61184969815341 1.7241164328835223 Q 5.618508078835228 1.729443137428977 5.618508078835228 1.7371002752130678 Q 5.618508078835228 1.7447574129971586 5.612515536221593 1.7497511985085223 Q 5.606522993607956 1.754744984019886 5.596202503551138 1.7542456054687496 Q 5.585882013494319 1.7537462269176132 5.574229847301138 1.752913929332386 Q 5.562577681107956 1.7520816317471586 5.549260919744319 1.751415793678977 Q 5.521295720880683 1.750417036576704 5.500654740767047 1.7520816317471586 Q 5.500654740767047 1.7810455877130678 5.500321821732956 1.809676624644886 Q 5.499988902698865 1.8436343661221586 5.499655983664774 1.8785908647017042 Q 5.498657226562501 1.9724740323153405 5.498657226562501 2.0170851828835223 Q 5.540272105823865 2.0170851828835223 5.559914328835228 2.015087668678977 Q 5.581221147017047 2.0127572354403407 5.586714311079547 2.0170851828835223 Q 5.592207475142047 2.021413130326704 5.592207475142047 2.028737349076704 Q 5.592207475142047 2.047047895951704 5.557916814630683 2.0463820578835223 Q 5.550925514914774 2.0460491388494315 5.545265891335228 2.0460491388494315 L 5.518299449573865 2.0457162198153407 L 5.498657226562501 2.0457162198153407 L 5.498657226562501 2.0780093661221586 M 5.971901633522728 1.7390977894176132 Q 5.969904119318183 1.904891468394886 5.969904119318183 1.9736392489346586 Q 5.969904119318183 2.0423870294744315 5.970070578835228 2.074513716264204 Q 5.970237038352274 2.106640403053977 5.970569957386365 2.135604359019886 Q 5.971235795454547 2.196861461292613 5.972068093039774 2.2193334960937494 Q 5.972900390625002 2.241805530894886 5.970902876420456 2.2461334783380678 Q 5.968905362215911 2.2504614257812494 5.965576171875002 2.2534576970880678 Q 5.951926491477274 2.2657757013494315 5.936612215909093 2.255788130326704 Q 5.930619673295456 2.251793101917613 5.927956321022728 2.2438030450994315 Q 5.898659446022728 2.157909934303977 5.857377485795456 2.057201926491477 Q 5.816095525568183 1.956493918678977 5.799782492897728 1.9148790394176132 Q 5.770152698863638 1.839306418678977 5.748180042613638 1.776384721235795 L 5.75250799005682 2.240806773792613 Q 5.75250799005682 2.2511272638494315 5.747181285511365 2.256121049360795 Q 5.741854580965911 2.2611148348721586 5.735029740767047 2.2611148348721586 Q 5.728204900568183 2.2611148348721586 5.722378817471593 2.2556216708096586 Q 5.716552734375002 2.2501285067471586 5.716885653409093 2.2391421786221586 Q 5.720214843750002 2.1475894442471586 5.720214843750002 2.0304019442471586 L 5.720214843750002 1.8329809570312496 Q 5.720214843750002 1.7813785067471586 5.71954900568182 1.744091574928977 Q 5.71954900568182 1.7317735706676132 5.727039683948865 1.7252816495028407 Q 5.734530362215911 1.7187897283380678 5.742853338068183 1.7187897283380678 Q 5.761496803977274 1.7187897283380678 5.767489346590911 1.736434437144886 Q 5.773481889204547 1.754079145951704 5.784468217329547 1.7838753995028405 Q 5.795454545454547 1.813671653053977 5.809104225852274 1.8501262872869315 Q 5.822753906250002 1.886580921519886 5.838401100852274 1.9273635031960223 Q 5.854048295454547 1.9681460848721586 5.86969549005682 2.008595747514204 Q 5.885342684659093 2.0490454101562494 5.899991122159093 2.086998180042613 Q 5.914639559659093 2.124950949928977 5.926624644886365 2.1559124200994315 Q 5.938609730113638 2.186873890269886 5.946932705965911 2.208846546519886 Q 5.947265625000002 2.2098453036221586 5.947598544034093 2.2105111416903407 Q 5.944935191761365 2.1452590110085223 5.943270596590911 2.0683547141335223 Q 5.941606001420456 1.974804465553977 5.940440784801138 1.9281958007812496 Q 5.93927556818182 1.8815871360085223 5.938110351562502 1.833813254616477 Q 5.936945134943183 1.7860393732244315 5.935280539772728 1.7390977894176132 Q 5.935280539772728 1.728444380326704 5.94110662286932 1.723284135298295 Q 5.946932705965911 1.718123890269886 5.95392400568182 1.718123890269886 Q 5.960915305397728 1.718123890269886 5.966408469460228 1.723284135298295 Q 5.971901633522728 1.728444380326704 5.971901633522728 1.7390977894176132 M 6.261707652698865 2.1232863547585223 Q 6.261707652698865 2.1123000266335223 6.267200816761365 2.1061410245028407 Q 6.272693980823865 2.0999820223721586 6.279851740056819 2.0999820223721586 Q 6.287009499289774 2.0999820223721586 6.292502663352274 2.1051422674005678 Q 6.297995827414774 2.110302512428977 6.297329989346593 2.120955921519886 Q 6.294000799005683 2.1882055664062494 6.261041814630683 2.2291546075994315 Q 6.229414506392047 2.2684390536221586 6.181807084517047 2.2684390536221586 Q 6.091918945312502 2.2684390536221586 6.065618341619319 2.1339397638494315 Q 6.055630770596593 2.084334827769886 6.055630770596593 2.016918723366477 Q 6.055630770596593 1.9495026189630678 6.063953746448865 1.8967349520596586 Q 6.072276722301138 1.8439672851562496 6.089255593039774 1.8050157581676132 Q 6.125543767755683 1.721785999644886 6.192460493607956 1.721785999644886 Q 6.244395862926138 1.721785999644886 6.269364790482956 1.7627350408380678 Q 6.295665394176138 1.806347434303977 6.295665394176138 1.905224387428977 Q 6.295665394176138 1.916210715553977 6.290671608664774 1.921703879616477 Q 6.28567782315341 1.927197043678977 6.278686523437502 1.927197043678977 Q 6.263372247869319 1.927197043678977 6.263372247869319 1.9078877397017042 Q 6.263372247869319 1.7847076970880678 6.224087801846593 1.7610704456676132 Q 6.210105202414774 1.7527474698153407 6.191461736505683 1.7527474698153407 Q 6.172818270596593 1.7527474698153407 6.158003373579547 1.7632344193892042 Q 6.143188476562502 1.7737213689630678 6.131702769886365 1.7921983753551132 Q 6.120217063210228 1.8106753817471586 6.111894087357956 1.8358107688210223 Q 6.103571111505683 1.860946155894886 6.098244406960228 1.889910111860795 Q 6.087590997869319 1.948503861860795 6.087590997869319 2.005599476207386 Q 6.087590997869319 2.062695090553977 6.091253107244319 2.097152210582386 Q 6.094915216619319 2.131609330610795 6.101573597301138 2.156078879616477 Q 6.108231977982956 2.1805484286221586 6.117387251420456 2.196029163707386 Q 6.126542524857956 2.211509898792613 6.137528852982956 2.2204987127130678 Q 6.156172318892047 2.2361459073153407 6.185136274857956 2.2361459073153407 Q 6.217429421164774 2.2361459073153407 6.238070401278411 2.2098453036221586 Q 6.262373490767047 2.179549671519886 6.261707652698865 2.1232863547585223 M 6.41934481534091 2.0780093661221586 L 6.420010653409093 2.1961956232244315 Q 6.420010653409093 2.212175736860795 6.420010653409093 2.223494984019886 Q 6.420343572443183 2.2284887695312494 6.420343572443183 2.2321508789062494 Q 6.504239169034093 2.2321508789062494 6.531871448863638 2.2294875266335223 Q 6.560502485795456 2.226491255326704 6.565163352272728 2.2278229314630678 Q 6.569824218750002 2.2291546075994315 6.57315340909091 2.2321508789062494 Q 6.579811789772728 2.238143421519886 6.579811789772728 2.2453011807528407 Q 6.579811789772728 2.252458939985795 6.573486328125002 2.257619185014204 Q 6.567160866477274 2.262779430042613 6.555841619318183 2.2621135919744315 Q 6.501242897727274 2.2577856445312494 6.457297585227274 2.2606154563210223 Q 6.413352272727274 2.263445268110795 6.408025568181819 2.2642775656960223 Q 6.402698863636365 2.2651098632812494 6.398537375710228 2.2642775656960223 Q 6.394375887784093 2.263445268110795 6.391046697443183 2.2607819158380678 Q 6.383389559659093 2.2551222922585223 6.384055397727274 2.2441359641335223 Q 6.389049183238638 2.1479223632812494 6.389049183238638 2.031234241832386 Q 6.389049183238638 1.9145461203835223 6.389215642755683 1.884416947798295 Q 6.389382102272728 1.8542877752130678 6.389382102272728 1.8293188476562496 Q 6.388716264204547 1.7757188831676132 6.387051669034093 1.7535797674005678 Q 6.385387073863638 1.7314406516335223 6.387883966619319 1.7271127041903407 Q 6.390380859375002 1.7227847567471586 6.394042968750002 1.7207872425426132 Q 6.399036754261365 1.718456809303977 6.406693892045456 1.7197884854403407 Q 6.420676491477274 1.722118918678977 6.443647904829547 1.722118918678977 Q 6.487926136363638 1.722118918678977 6.504072709517047 1.720287863991477 Q 6.520219282670456 1.718456809303977 6.524880149147728 1.719954944957386 Q 6.529541015625002 1.721453080610795 6.532537286931819 1.7241164328835223 Q 6.539195667613638 1.729443137428977 6.539195667613638 1.7371002752130678 Q 6.539195667613638 1.7447574129971586 6.533203125000002 1.7497511985085223 Q 6.527210582386365 1.754744984019886 6.516890092329547 1.7542456054687496 Q 6.506569602272728 1.7537462269176132 6.494917436079547 1.752913929332386 Q 6.483265269886365 1.7520816317471586 6.469948508522728 1.751415793678977 Q 6.441983309659093 1.750417036576704 6.421342329545456 1.7520816317471586 Q 6.421342329545456 1.7810455877130678 6.421009410511365 1.809676624644886 Q 6.420676491477274 1.8436343661221586 6.420343572443183 1.8785908647017042 Q 6.41934481534091 1.9724740323153405 6.41934481534091 2.0170851828835223 Q 6.460959694602274 2.0170851828835223 6.480601917613638 2.015087668678977 Q 6.501908735795456 2.0127572354403407 6.507401899857956 2.0170851828835223 Q 6.512895063920456 2.021413130326704 6.512895063920456 2.028737349076704 Q 6.512895063920456 2.047047895951704 6.478604403409093 2.0463820578835223 Q 6.471613103693183 2.0460491388494315 6.465953480113638 2.0460491388494315 L 6.438987038352274 2.0457162198153407 L 6.41934481534091 2.0457162198153407 L 6.41934481534091 2.0780093661221586" fill="#769687" fill-rule="nonzero"></path></g><g clip-path="url(#SvgjsClipPath1003)"><g clip-path="url(#aeed85232-e9a4-4ff7-ae95-46b288379387aac21286-a0e7-4509-87dd-db4fecc1f0f2)"><path d=" M 2.3960101375100504 -3.047610445432732 C 2.3185675897664386 -3.0994150129535893 2.235451556165169 -3.1421879817872425 2.148283860612092 -3.1750947329032475 L 2.148283860612092 -3.1751443376843644 C 2.148283860612092 -3.1751443376843644 1.8261504120387353 -3.325645243593136 1.2540584714171583 -3.308085151077742 C 1.3189911298992223 -3.254859220939274 1.429312163103279 -3.158477131229075 1.5194936551738614 -3.049842660582994 C 1.2559930578807186 -3.0976120647985996 0.9770653736602096 -3.0705278543087546 0.9124799486459642 -3.061400574583239 C 0.7219479843758283 -3.0343659688745115 0.49168259043103013 -2.990168108899325 0.2816063424008229 -3.0479080741194338 C 0.1931610176693332 -3.0670059148494526 0.07495282426768456 -3.1187437015544126 0.005754154609564121 -3.2566449930594836 L 0 -3.2485594137374236 C 0 -3.2485594137374236 0.0045140350816408326 -3.1982601656848546 0.023363851906074803 -3.126531652189771 C 0.0414199922326378 -3.0577794255617032 0.07262139955518832 -2.9693837056113304 0.12584732969365633 -2.8862460924593525 C 0.18333927100818054 -2.796411833856588 0.2664768841601588 -2.712926987236792 0.3863220353386664 -2.6675882172959158 C 0.40626315734767293 -2.660097895347259 0.4352819543010782 -2.6525579686174856 0.4693604389284106 -2.643579503235321 C 0.5145007897448186 -2.6289956975869426 0.6051287248454535 -2.5893614774745144 0.6906969722721614 -2.490003100897299 C 0.39539971028306503 -2.579738149937829 0.19152405989247423 -2.3877676470153024 0.19152405989247423 -2.3877676470153024 C 0.30616070905370435 -2.3816166541568027 0.5959022355577043 -2.190886270762199 0.6655473482458767 -1.9806612083886415 C 0.719219721414397 -1.8185527836985074 0.801762077192972 -1.7468738749845407 0.8576666655117542 -1.7156724676619906 C 0.8230645769073648 -1.7100095233547974 0.7877626755443317 -1.7101268611086158 0.7531989964794957 -1.716019701129809 C 0.655824811146958 -1.7332325601773846 0.5974895885534459 -1.7792657970538974 0.5535893572649612 -1.8629986675792791 C 0.5393031803032851 -1.814038748616867 0.6115773463906543 -1.55852452108355 0.7469487940587624 -1.3851558110798727 C 0.9760732780378714 -1.0916939259921028 1.3516310758741634 -0.9160433960570469 1.714589259306755 -0.9392584336197705 C 2.044361844172119 -0.9603404655944665 2.3579136656122466 -1.1619342960536785 2.575728259496695 -1.4392746272784454 L 2.6117413305875874 -1.487044031494051 C 2.7812904724452614 -1.721277807928204 2.8833275072027904 -2.0025369168612084 2.8739522035716902 -2.272982183510722 C 2.862543103914796 -2.6032012114061382 2.662536626451326 -2.8680907425705553 2.3960101375100504 -3.047610445432732 M 0.7361349517752711 -3.223707418397841 C 0.7394584721101053 -3.22420346620901 0.8884216298042521 -3.2459303603382264 1.075481259396203 -3.2122983187409466 C 1.0260252926226217 -3.3069938458931696 0.9338100045262451 -3.3510924963061224 0.818528493210495 -3.3730178095598062 C 0.7065705022295795 -3.394347865440087 0.5195604774187458 -3.34935632896703 0.3843378440939891 -3.33447489463195 C 0.31052592979199417 -3.326339710528773 0.2108203197469612 -3.3654778828300325 0.2108203197469612 -3.3654778828300325 C 0.25571264665778454 -3.3276294348378133 0.3298717944275978 -3.28839205297432 0.37193664881475624 -3.268004487935261 C 0.5006610558131948 -3.2055520685090437 0.6197621352749487 -3.217606030320458 0.7361349517752711 -3.223707418397841" fill="#769687" transform="matrix(1,0,0,1,0,0)" fill-rule="nonzero"></path></g><g clip-path="url(#aeed85232-e9a4-4ff7-ae95-46b288379387aac21286-a0e7-4509-87dd-db4fecc1f0f2)"><path d=" M 2.5544478083975313 -0.26463341042949473 L 1.9247647168991964 -0.3984671098829775 C 1.5665685924538304 -0.4746104488974683 1.3378905515047739 -0.8267547900465688 1.4140338905192642 -1.1850005192730517 L 1.7800675703811053 -2.9070801005284634 C 1.8562109093955963 -3.2653258297549463 2.2083552505446966 -3.493954265922886 2.5665513749900626 -3.4178109269083956 L 3.1962344664883977 -3.2839772274549124 C 3.554480195714881 -3.207833888440422 3.783158236663937 -2.855739152072439 3.707014897649447 -2.497493422845955 L 3.340931613006488 -0.7754138415905434 C 3.264788273991998 -0.4171681123640605 2.9126935376240146 -0.1884900714150044 2.5544478083975313 -0.26463341042949473" fill="#212121" transform="matrix(1,0,0,1,0,0)" fill-rule="nonzero"></path></g><g clip-path="url(#aeed85232-e9a4-4ff7-ae95-46b288379387aac21286-a0e7-4509-87dd-db4fecc1f0f2)"><path d=" M 2.995136683840355 -0.7338946397956718 L 1.7206410426030205 -1.0047863494752374 C 1.6368486055983225 -1.022610920744154 1.5833562622577653 -1.1049700330107077 1.6011431248923313 -1.1887704826379384 L 1.9494678978954285 -2.8274148220546707 C 1.9580157387081631 -2.8676610223144556 1.9822031009514374 -2.902862388464616 2.016707820763871 -2.925273245846162 C 2.051212540576304 -2.947684103227707 2.0932074505008282 -2.9554682031471673 2.1334520310581295 -2.9469127397653603 L 3.407947672295463 -2.6760210300857943 C 3.4917367338202343 -2.6581977811319932 3.5452144654858704 -2.575826972681892 3.527395985225036 -2.492036896923093 L 3.1791208170030556 -0.853392557506361 C 3.170572976190321 -0.8131463572465765 3.146385613947047 -0.7779449910964158 3.111880894134613 -0.7555341337148707 C 3.07737617432218 -0.7331232763333251 3.035381264397656 -0.7253391764138644 2.995136683840355 -0.7338946397956718" fill="#d7bb90" transform="matrix(1,0,0,1,0,0)" fill-rule="nonzero"></path></g><g clip-path="url(#aeed85232-e9a4-4ff7-ae95-46b288379387aac21286-a0e7-4509-87dd-db4fecc1f0f2)"><path d=" M 2.9795111777885217 -2.979205452272483 L 2.6406113131976423 -3.051231594454268 C 2.6043137006040036 -3.0589664572340314 2.581139276355496 -3.094638200306207 2.588823921711565 -3.1309464777091778 L 2.589121550398267 -3.132236202018218 C 2.5968327893511884 -3.168526945291616 2.6324900529967166 -3.191706386914238 2.6687868288720593 -3.184023593504295 L 3.007736298244056 -3.111947846541393 C 3.025168673556455 -3.10825748685871 3.0404180076531735 -3.097786407474014 3.0501231096835744 -3.08284259744446 C 3.0598282117139757 -3.0678987874149057 3.0631923747899448 -3.049709007298801 3.059474084949016 -3.0322825680676 L 3.0591764562623145 -3.030943238977443 C 3.055474046892512 -3.0135175503796727 3.0450004203537935 -2.998276585728334 3.030059999598524 -2.988573684826873 C 3.0151195788432537 -2.978870783925412 2.996936408833128 -2.975500890045963 2.9795111777885217 -2.979205452272483" fill="#d7bb90" transform="matrix(1,0,0,1,0,0)" fill-rule="nonzero"></path></g><g clip-path="url(#aeed85232-e9a4-4ff7-ae95-46b288379387aac21286-a0e7-4509-87dd-db4fecc1f0f2)"><path d=" M 2.453650893167925 -0.5675202039294822 C 2.442460688786564 -0.512412886438387 2.4025578287222236 -0.46754962726385063 2.3491318475844998 -0.45000820045094336 C 2.2957058664467755 -0.4324667736380361 2.236975756136038 -0.44494573224701117 2.1952978851369482 -0.48269480089968475 C 2.1536200141378585 -0.5204438695523579 2.1354060585089836 -0.5776557746545765 2.147589393676454 -0.6325520719737772 C 2.166191079092308 -0.7163685014809773 2.248862897237315 -0.7695357869593482 2.3328438433500893 -0.7516915373071846 C 2.4168247894628627 -0.733847287655021 2.470736252700425 -0.6516588219671595 2.4536508931679246 -0.5675202039294795" fill="#d7bb90" transform="matrix(1,0,0,1,0,0)" fill-rule="nonzero"></path></g><g clip-path="url(#aeed85232-e9a4-4ff7-ae95-46b288379387aac21286-a0e7-4509-87dd-db4fecc1f0f2)"><path d=" M 3.4246148787507527 -2.5038428348289234 C 3.4246148787507527 -2.5038428348289234 2.98858885273292 -1.4068827052090884 1.7321493518221491 -1.1720536714015326 L 3.0203359126477567 -0.8628670706996955 Z" fill="#8fb0a1" transform="matrix(1,0,0,1,0,0)" fill-rule="nonzero"></path></g></g></g><defs><clipPath id="SvgjsClipPath1003"><path d=" M 0 -3.4324770959211897 h 3.721632809770408 v 3.1824770959211897 h -3.721632809770408 Z"></path></clipPath><clipPath id="aeed85232-e9a4-4ff7-ae95-46b288379387aac21286-a0e7-4509-87dd-db4fecc1f0f2"><path d=" M 0 -0.25 L 3.7215987032978246 -0.25 L 3.7215987032978246 -3.432444337337891 L 0 -3.432444337337891 Z"></path></clipPath></defs></svg>